<mxfile host="app.diagrams.net" modified="2024-02-24T08:10:57.288Z" agent="Mozilla/5.0 (Macintosh; Intel Mac OS X 10.15; rv:122.0) Gecko/20100101 Firefox/122.0" version="21.7.5" etag="W8iyx-De9urRiipSzlqS" type="github">
  <diagram name="Page-1" id="kCnvfpUp0MXOeQUHzLwy">
    <mxGraphModel>
      <root>
        <mxCell id="0" />
        <mxCell id="1" parent="0" />
      </root>
    </mxGraphModel>
  </diagram>
</mxfile>
